<svg xmlns="http://www.w3.org/2000/svg" width="64" height="64" viewBox="0 0 64 64">
  <defs>
    <linearGradient id="g" x1="0" y1="0" x2="1" y2="1">
      <stop offset="0" stop-color="#7aa2ff"/>
      <stop offset="1" stop-color="#49d28c"/>
    </linearGradient>
    <filter id="shadow" x="-20%" y="-20%" width="140%" height="140%">
      <feDropShadow dx="0" dy="4" stdDeviation="4" flood-color="#000" flood-opacity="0.35"/>
    </filter>
  </defs>
  <rect x="6" y="6" width="52" height="52" rx="14" fill="#0b1020" filter="url(#shadow)"/>
  <rect x="10" y="10" width="44" height="44" rx="12" fill="url(#g)" opacity="0.18"/>
  <path d="M14 42c7-1 11-4 11-10 0-6-4-9-11-10v20zm7-15c3 1 5 3 5 5s-2 5-5 6V27z" fill="#e7ecff" opacity="0.92"/>
  <path d="M34 22h16l6 20h-5l-1.4-5H38.4L37 42h-5l6-20zm6 5-2.2 8h9L44.6 27H40z" fill="#e7ecff" opacity="0.92"/>
</svg>
